<svg xmlns="http://www.w3.org/2000/svg" xmlns:xlink="http://www.w3.org/1999/xlink" width="221.43" height="123.431" viewBox="0 0 221.43 123.431">
  <defs>
    <clipPath id="clip-path">
      <rect id="Rectangle_3022" data-name="Rectangle 3022" width="221.43" height="123.431" fill="none"/>
    </clipPath>
  </defs>
  <g id="Group_978" data-name="Group 978" clip-path="url(#clip-path)">
    <path id="Path_2869" data-name="Path 2869" d="M70.281,53.383A22.164,22.164,0,1,1,92.446,31.218,22.191,22.191,0,0,1,70.281,53.383m0-32.334a10.168,10.168,0,1,0,10.17,10.17,10.181,10.181,0,0,0-10.17-10.17" transform="translate(92.135 17.337)" fill="#ff9500"/>
    <path id="Path_2870" data-name="Path 2870" d="M37.124,69.853a6,6,0,0,1-4.241-10.24L90.739,1.757a6,6,0,0,1,8.482,8.482L41.365,68.1a5.981,5.981,0,0,1-4.241,1.758" transform="translate(59.599 0.004)" fill="#ff9500"/>
    <path id="Path_2871" data-name="Path 2871" d="M16.014,69.851a6,6,0,0,1-4.241-10.24L69.629,1.755a6,6,0,0,1,8.482,8.482L20.255,68.094a5.981,5.981,0,0,1-4.241,1.758" transform="translate(19.177 0)" fill="#ff9500"/>
    <path id="Path_2872" data-name="Path 2872" d="M26.724,69.851a6,6,0,0,1-4.241-10.24L80.339,1.755a6,6,0,1,1,8.482,8.482L30.965,68.094a5.981,5.981,0,0,1-4.241,1.758" transform="translate(39.685 0)" fill="#ff9500"/>
    <text id="M" transform="translate(0 112.632)" fill="#300176" font-size="21" font-family="Rig-BoldFace, Rig Shaded" font-weight="700"><tspan x="0" y="0">M</tspan></text>
    <text id="E" transform="translate(22.348 112.632)" fill="#300176" font-size="21" font-family="Rig-BoldFace, Rig Shaded" font-weight="700"><tspan x="0" y="0">E</tspan></text>
    <text id="D" transform="translate(35.883 112.632)" fill="#300176" font-size="21" font-family="Rig-BoldFace, Rig Shaded" font-weight="700"><tspan x="0" y="0">D</tspan></text>
    <text id="I" transform="translate(51.745 112.632)" fill="#300176" font-size="21" font-family="Rig-BoldFace, Rig Shaded" font-weight="700"><tspan x="0" y="0">I</tspan></text>
    <text id="A" transform="translate(59.202 111.632)" fill="#300176" font-size="20" font-family="Rig-BoldFace, Rig Shaded" font-weight="700"><tspan x="0" y="0">A</tspan></text>
    <text id="_" data-name=" " transform="translate(77.122 110.632)" fill="#300176" font-size="19" font-family="Rig-BoldFace, Rig Shaded" font-weight="700"><tspan x="0" y="0"> </tspan></text>
    <text id="o" transform="translate(83.629 112.632)" fill="#300176" font-size="21" font-family="Rig-BoldFace, Rig Shaded" font-weight="700"><tspan x="0" y="0">o</tspan></text>
    <text id="p" transform="translate(101.751 111.632)" fill="#300176" font-size="20" font-family="Rig-BoldFace, Rig Shaded" font-weight="700"><tspan x="0" y="0">p</tspan></text>
    <text id="e-2" data-name="e" transform="translate(116.553 112.632)" fill="#300176" font-size="21" font-family="Rig-BoldFace, Rig Shaded" font-weight="700"><tspan x="0" y="0">e</tspan></text>
    <text id="r" transform="translate(131.577 112.632)" fill="#300176" font-size="21" font-family="Rig-BoldFace, Rig Shaded" font-weight="700"><tspan x="0" y="0">r</tspan></text>
    <text id="a-2" data-name="a" transform="translate(147.825 111.632)" fill="#300176" font-size="20" font-family="Rig-BoldFace, Rig Shaded" font-weight="700"><tspan x="0" y="0">a</tspan></text>
    <text id="t" transform="translate(163.867 112.632)" fill="#300176" font-size="21" font-family="Rig-BoldFace, Rig Shaded" font-weight="700"><tspan x="0" y="0">t</tspan></text>
    <text id="o-2" data-name="o" transform="translate(176.002 112.632)" fill="#300176" font-size="21" font-family="Rig-BoldFace, Rig Shaded" font-weight="700"><tspan x="0" y="0">o</tspan></text>
    <text id="r-2" data-name="r" transform="translate(194.576 112.632)" fill="#300176" font-size="21" font-family="Rig-BoldFace, Rig Shaded" font-weight="700"><tspan x="0" y="0">r</tspan></text>
  </g>
</svg>
